<?xml version="1.0" encoding="iso-8859-1"?>
<!-- Generator: Adobe Illustrator 19.0.0, SVG Export Plug-In . SVG Version: 6.00 Build 0)  -->
<svg version="1.1" id="Layer_1" xmlns="http://www.w3.org/2000/svg" xmlns:xlink="http://www.w3.org/1999/xlink" x="0px" y="0px"
	 viewBox="0 0 512 512" style="enable-background:new 0 0 512 512;" xml:space="preserve">
<g>
	<g>
		<path d="M468.413,193.472c-7.662-4.341-10.748-13.836-7.1-21.852c23.79-52.27-23.586-113.196-81.832-99.779
			c-0.029,0.007-0.058,0.014-0.086,0.021c-2.072,0.485-4.253,0.049-5.978-1.198c-1.723-1.249-2.819-3.184-3.003-5.304
			C365.482,8.361,298.886-18.118,256,13.566c-42.887-31.684-109.482-5.205-114.414,51.792c-0.183,2.12-1.28,4.055-3.003,5.304
			c-1.724,1.248-3.905,1.683-5.978,1.198c-0.029-0.007-0.058-0.014-0.086-0.021C74.273,58.424,26.896,119.349,50.685,171.62
			c3.649,8.016,0.563,17.512-7.099,21.852c-47.572,26.947-47.572,98.15,0,125.097c7.662,4.341,10.748,13.835,7.1,21.852
			c-22.648,49.762,19.204,107.369,73.53,101.206c8.751-0.992,16.828,4.876,18.588,13.505
			c10.423,51.104,72.489,73.371,113.195,43.274c40.707,30.097,102.772,7.83,113.195-43.274c1.76-8.629,9.838-14.497,18.588-13.505
			c54.326,6.163,96.179-51.443,73.53-101.206c-3.649-8.015-0.563-17.511,7.1-21.852
			C515.987,291.622,515.987,220.417,468.413,193.472z M238.47,241.488h-53.032c-3.677-20.72-14.588-40.553-31.377-54.709
			c-7.284-6.149-18.177-5.175-24.327,2.115c-6.149,7.307-5.37,18.214,1.937,24.358c12.984,10.955,20.464,26.937,20.464,43.806
			c0,0.119,0,0.23,0,0.349c0,16.744-7.165,32.639-19.912,43.662c-7.228,6.228-7.938,17.144-1.711,24.354
			c6.239,7.212,17.176,7.907,24.382,1.668c15.506-13.399,25.946-31.497,30.048-51.066h53.527v71.008
			c-19.569,3.867-38.64,14.359-52.389,30.27c-6.239,7.206-5.376,18.109,1.836,24.349c7.212,6.228,18.029,5.452,24.256-1.776
			c7.122-8.236,15.936-14.153,26.296-17.339v85.538c-8.058,7.661-17.134,9.399-24.031,9.399c0,0,0,0-0.006,0
			c-15.806,0-33.865-10.031-37.794-29.282c-4.873-23.894-26.109-41.224-50.491-41.224c-1.928,0-3.878,0.123-5.834,0.342
			c-1.377,0.158-2.743,0.241-4.098,0.241c-12.253,0-23.849-6.647-31.015-17.781c-3.35-5.21-10.365-19.053-3.086-35.032
			c11.146-24.489,1.895-52.952-21.51-66.211c-11.377-6.442-18.166-18.593-18.166-32.499c0-13.909,6.791-26.06,18.166-32.502
			c23.405-13.26,32.656-41.722,21.51-66.207c-7.279-15.996-0.269-29.835,3.086-35.045c7.161-11.135,18.756-17.778,31.009-17.778
			c2.552,0,5.171,0.281,7.801,0.838l0.899,0.259l1.31,0.219c2.653,0.523,5.356,0.782,8.06,0.782c8.897,0,17.402-2.759,24.596-7.988
			c9.825-7.105,16.081-18.172,17.115-30.318c1.899-21.932,21.093-33.797,38.309-33.797c6.896,0,16.11,1.827,24.168,9.488v91.414
			c-10.36-3.186-19.143-9.104-26.264-17.339c-6.228-7.228-17.078-8.004-24.289-1.776c-7.212,6.239-8.107,17.144-1.868,24.349
			c13.75,15.911,32.853,26.402,52.422,30.27V241.488z M451.393,288.518c-23.405,13.26-32.656,41.722-21.51,66.207
			c7.273,15.986,0.264,29.829-3.092,35.034c-7.167,11.141-18.756,17.789-31.015,17.789c-1.349,0-2.714-0.078-4.104-0.236
			c-1.944-0.219-3.895-0.332-5.824-0.332c-24.383,0-45.618,17.351-50.491,41.245c-3.929,19.251-22.113,29.324-37.925,29.324
			c-6.896,0-16.371-1.821-24.429-9.482v-85.52c10.36,3.261,19.811,9.362,26.993,17.874c6.144,7.307,17.091,8.218,24.398,2.069
			c7.29-6.149,8.114-17.042,1.965-24.327c-13.811-16.377-32.634-27.175-53.355-31.111V276.02h54.051
			c4.101,19.569,14.51,37.667,30.016,51.066c7.206,6.239,18.109,5.492,24.349-1.719c6.228-7.212,5.322-18.101-1.907-24.329
			c-12.748-11.022-20.175-26.893-20.175-43.636c0-0.119,0-0.23,0-0.349c0-16.867,7.741-32.825,20.725-43.78
			c7.307-6.144,8.282-17.025,2.134-24.332c-6.149-7.29-17.009-8.315-24.293-2.165c-16.788,14.156-27.667,33.989-31.344,54.709
			h-53.555v-70.62c20.72-3.938,39.577-14.734,53.387-31.111c6.149-7.284,5.293-18.177-1.997-24.327
			c-7.307-6.149-18.287-5.239-24.43,2.069c-7.182,8.513-16.599,14.612-26.959,17.873V43.973c8.058-7.661,17.533-9.488,24.429-9.488
			c17.216,0,36.606,11.866,38.511,33.853c1.028,12.09,7.318,23.157,17.204,30.307c7.138,5.182,15.659,7.942,24.551,7.942
			c2.687,0,5.381-0.259,8.018-0.77l1.308-0.219l0.862-0.247c3.102-0.618,5.532-0.86,7.898-0.86c12.254,0,23.849,6.644,31.01,17.778
			c3.356,5.21,10.365,19.049,3.086,35.045c-11.146,24.483-1.894,52.947,21.511,66.207c11.377,6.442,18.166,18.593,18.166,32.498
			C469.558,269.925,462.769,282.077,451.393,288.518z"/>
	</g>
</g>
<g>
</g>
<g>
</g>
<g>
</g>
<g>
</g>
<g>
</g>
<g>
</g>
<g>
</g>
<g>
</g>
<g>
</g>
<g>
</g>
<g>
</g>
<g>
</g>
<g>
</g>
<g>
</g>
<g>
</g>
</svg>
